<?xml version="1.0" encoding="UTF-8" standalone="no"?>
<svg
   xmlns:dc="http://purl.org/dc/elements/1.1/"
   xmlns:cc="http://creativecommons.org/ns#"
   xmlns:rdf="http://www.w3.org/1999/02/22-rdf-syntax-ns#"
   xmlns:svg="http://www.w3.org/2000/svg"
   xmlns="http://www.w3.org/2000/svg"
   width="300"
   height="145"
   id="svg2"
   version="1.1">
  <defs
     id="defs4" />
  <metadata
     id="metadata7">
    <rdf:RDF>
      <cc:Work
         rdf:about="">
        <dc:format>image/svg+xml</dc:format>
        <dc:type
           rdf:resource="http://purl.org/dc/dcmitype/StillImage" />
        <dc:title></dc:title>
      </cc:Work>
    </rdf:RDF>
  </metadata>
  <g
     transform="translate(0,-210)"
     id="g1270">
     <path
        style="fill:none;stroke:#ffffff;stroke-width:1;stroke-opacity:1"
        d="M 45,345 A 105 105 0 0 1 255 345 M 45,345 Z"
        id="arc0" />
     <path
        style="fill:none;stroke:#ffffff;stroke-width:1;stroke-opacity:1"
        d="M 71.25,345 A 78.75 78.75 0 0 1 228.75 345 M 71.25,345 Z"
        id="arc1" />
     <path
        style="fill:none;stroke:#ffffff;stroke-width:1;stroke-opacity:1"
        d="M 97.5,345 A 52.5 52.5 0 0 1 202.5 345 M 97.5,345 Z"
        id="arc2" />
     <path
        style="fill:none;stroke:#ffffff;stroke-width:1;stroke-opacity:1"
        d="M 123.75,345 A 26.25 26.25 0 0 1 176.25 345 M 123.75,345 Z"
        id="arc3" />
     <path
        style="fill:#000000;fill-opacity:1;stroke:none;stroke-width:1.00157475;stroke-miterlimit:4;stroke-dasharray:none;stroke-dashoffset:0;stroke-opacity:1"
        d="m 0,210 v 145 h 300 v -145 z M 45,345 A 105 105 0 0 1 255 345 Z"
        id="rect1204_semicircle" />
    <!-- <path
        style="fill:#000000;fill-opacity:1;stroke:none;stroke-width:1.00157475;stroke-miterlimit:4;stroke-dasharray:none;stroke-dashoffset:0;stroke-opacity:1"
        d="m 0,210 v 130 h 300 v -130 z m 150,30 c 37.82078,0 70.98414,20.0031 89.46875,50 L 150,329.46875 L 60.5625,290 C 79.0471,260.0031 112.17921,240 150,240 Z"
        id="rect1204_pie" />-->
    <!--<path
       style="fill:#000000;fill-opacity:1;stroke:none;stroke-width:1.00157475;stroke-miterlimit:4;stroke-dasharray:none;stroke-dashoffset:0;stroke-opacity:1"
       d="m 0,210 v 90 h 300 v -90 z m 150,30 c 37.82078,0 70.98414,20.0031 89.46875,50 H 60.5625 C 79.0471,260.0031 112.17921,240 150,240 Z"
       id="rect1204_orig" />-->
  </g>
</svg>
